<?xml version="1.0" standalone="no"?>
<!DOCTYPE svg PUBLIC "-//W3C//DTD SVG 20010904//EN"
 "http://www.w3.org/TR/2001/REC-SVG-20010904/DTD/svg10.dtd">
<svg version="1.0" xmlns="http://www.w3.org/2000/svg"
 width="16.000000pt" height="16.000000pt" viewBox="0 0 16.000000 16.000000"
 preserveAspectRatio="xMidYMid meet">
<metadata>
Created by potrace 1.11, written by Peter Selinger 2001-2013
</metadata>
<g transform="translate(0.000000,16.000000) scale(0.005861,-0.005861)"
fill="#000000" stroke="none">
<path d="M1320 2334 c-204 -28 -347 -117 -414 -259 -45 -93 -56 -164 -56 -357
l0 -178 -230 0 -231 0 3 -102 3 -103 228 -3 227 -2 0 -500 0 -500 125 0 125 0
0 500 0 500 304 0 305 0 3 105 3 105 -308 0 -309 0 4 188 c3 187 3 189 33 247
55 108 148 155 304 155 77 0 258 -21 304 -36 15 -5 17 4 17 104 l0 109 -86 12
c-96 13 -300 22 -354 15z"/>
</g>
</svg>
